<svg xmlns="http://www.w3.org/2000/svg" xmlns:xlink="http://www.w3.org/1999/xlink" version="1.1" id="Layer_1" x="0px" y="0px" width="90px" height="90px" viewBox="0 0 90 90" enable-background="new 0 0 90 90" xml:space="preserve">
<path d="M80.745,7.744H9.255c-3.584,0-6.499,2.915-6.499,6.499v40.079c0,3.584,2.915,6.499,6.499,6.499H36.44  c-1.679,4.447-5.21,9.466-8.32,11.63c-3.551,2.471-3.741,4.762-3.275,6.248c0.509,1.622,2.239,3.556,7.594,3.556h25.124  c5.353,0,7.084-1.934,7.593-3.556c0.466-1.486,0.277-3.777-3.274-6.248c-3.11-2.164-6.641-7.183-8.32-11.63h27.184  c3.584,0,6.499-2.915,6.499-6.499V14.244C87.244,10.66,84.329,7.744,80.745,7.744z M58.911,76.72c0.121,0.084,0.23,0.163,0.33,0.239  c-0.425,0.057-0.975,0.097-1.678,0.097H32.438c-0.704,0-1.254-0.041-1.679-0.097c0.099-0.075,0.209-0.155,0.33-0.239  c4.422-3.077,9.116-9.991,10.832-15.899h6.158C49.795,66.729,54.489,73.642,58.911,76.72z M82.045,54.322c0,0.717-0.583,1.3-1.3,1.3  H52.059H37.94H9.255c-0.717,0-1.3-0.583-1.3-1.3V14.244c0-0.717,0.583-1.3,1.3-1.3h71.49c0.717,0,1.3,0.583,1.3,1.3V54.322z"/>
<path d="M37.361,16.527H19.683c-0.957,0-1.733,0.776-1.733,1.733v29.086c0,0.957,0.776,1.733,1.733,1.733h17.678  c0.957,0,1.733-0.776,1.733-1.733V18.26C39.094,17.303,38.318,16.527,37.361,16.527z M21.416,19.993h0.728l-0.728,0.728V19.993z   M21.416,23.479l3.485-3.486h3.324l-6.808,6.81V23.479z M21.416,29.561l9.565-9.568h3.324L21.416,32.886V29.561z M35.627,42.998  l-2.614,2.615H29.69l5.938-5.94V42.998z M35.627,36.916l-8.694,8.697H23.61l12.018-12.022V36.916z M35.627,30.834L21.416,45.05  v-3.324l14.212-14.216V30.834z M35.627,24.752L21.416,38.968v-3.324l14.212-14.216V24.752z"/>
<path d="M70.442,17.054H43.389c-0.957,0-1.733,0.776-1.733,1.733V31.07c0,0.957,0.776,1.733,1.733,1.733h27.053  c0.957,0,1.733-0.776,1.733-1.733V18.788C72.175,17.83,71.399,17.054,70.442,17.054z M45.122,20.521h1.337l-1.337,1.337V20.521z   M45.122,24.615l4.093-4.095h3.324l-7.417,7.419V24.615z M46.482,29.337l8.813-8.816h3.324l-8.813,8.816H46.482z M52.562,29.337  l8.813-8.816h3.324l-8.813,8.816H52.562z M68.709,28.674l-0.663,0.663h-3.324l3.986-3.987V28.674z M68.709,22.592l-6.743,6.745  h-3.324l8.813-8.816h1.253V22.592z"/>
<path d="M70.442,36.646H43.389c-0.957,0-1.733,0.776-1.733,1.733v12.282c0,0.957,0.776,1.733,1.733,1.733h27.053  c0.957,0,1.733-0.776,1.733-1.733V38.379C72.175,37.422,71.399,36.646,70.442,36.646z M45.122,40.112h1.337l-1.337,1.338V40.112z   M45.122,44.207l4.094-4.095h3.324l-7.418,7.42V44.207z M46.482,48.928l8.814-8.816h3.324l-8.814,8.816H46.482z M52.563,48.928  l8.814-8.816H64.7l-8.814,8.816H52.563z M68.709,48.266l-0.662,0.662h-3.324l3.986-3.987V48.266z M68.709,42.184l-6.742,6.745  h-3.323l8.814-8.816h1.252V42.184z"/>
</svg>