<svg xmlns="http://www.w3.org/2000/svg" xmlns:xlink="http://www.w3.org/1999/xlink" version="1.1" id="Layer_1" x="0px" y="0px" width="30px" height="30px" viewBox="0 0 30 30" enable-background="new 0 0 30 30" xml:space="preserve">
<rect x="-131" y="-29" display="none" fill="#000000" width="198" height="87"/>
<g>
	<path d="M-61.814-2.012c-0.192-0.194-0.353-0.35-0.503-0.503l-8.456,8.456c-0.408,0.403-1.06,0.403-1.465,0   c0,0-2.752-2.711-3.374-3.33c-0.616-0.619-3.327-3.376-3.327-3.376c-0.405-0.4-0.405-1.055-0.002-1.46l8.456-8.456   c-0.149-0.151-0.31-0.309-0.501-0.506c-5.483-1.278-11.426,0.185-14.169,4.572C-88.514-1.072-87.416,3.85-85.92,6.998   l-21.047,17.489l0.036,0.035c-2.556,2.561-2.556,6.699,0,9.255s6.698,2.556,9.251,0l0.036,0.035l17.441-20.984   c3.138,1.542,8.158,2.757,13.816-0.671C-61.996,9.414-60.536,3.471-61.814-2.012z M-103.898,30.744l0.002-3.182l3.179,0.003v3.179   H-103.898z"/>
	<g>
		<path d="M-112.661,16.468c-0.079-0.815-0.122-1.638-0.122-2.47c0-14.214,11.567-25.781,25.784-25.781    c0.83,0,1.652,0.043,2.467,0.122l3.694-3.697C-82.842-15.775-84.903-16-86.999-16C-103.543-16-117-2.544-117,13.998    c0,2.101,0.226,4.157,0.643,6.164L-112.661,16.468z"/>
		<path d="M-57,13.998c0-2.095-0.228-4.157-0.645-6.164l-3.694,3.695c0.079,0.814,0.122,1.64,0.122,2.469    c0,14.217-11.567,25.784-25.782,25.784c-0.832,0-1.654-0.043-2.472-0.122l-3.694,3.697C-91.158,43.774-89.099,44-86.999,44    C-70.457,44-57,30.54-57,13.998z"/>
	</g>
</g>
<g>
	<path d="M-11.209,2.325c-0.128-0.129-0.235-0.233-0.335-0.335l-5.637,5.637c-0.271,0.269-0.707,0.269-0.977,0   c0,0-1.835-1.808-2.249-2.22c-0.41-0.413-2.218-2.251-2.218-2.251c-0.271-0.267-0.271-0.703-0.002-0.973l5.637-5.637   c-0.099-0.101-0.207-0.206-0.334-0.337c-3.655-0.852-7.618,0.123-9.446,3.048c-2.239,3.695-1.507,6.977-0.51,9.075l-14.031,11.659   l0.024,0.023c-1.704,1.707-1.704,4.467,0,6.17c1.704,1.704,4.465,1.704,6.167,0l0.024,0.023l11.627-13.989   c2.092,1.028,5.439,1.838,9.211-0.447C-11.331,9.942-10.357,5.98-11.209,2.325z M-39.265,24.163l0.001-2.122l2.12,0.002v2.12   H-39.265z"/>
	<g>
		<path d="M-45.107,14.645c-0.053-0.543-0.082-1.092-0.082-1.646c0-9.476,7.711-17.188,17.189-17.188    c0.553,0,1.102,0.029,1.645,0.082l2.463-2.465C-25.228-6.85-26.602-7-28-7c-11.029,0-20,8.971-20,19.999    c0,1.4,0.15,2.771,0.428,4.109L-45.107,14.645z"/>
		<path d="M-8,12.999c0-1.396-0.152-2.771-0.43-4.109l-2.463,2.463c0.053,0.543,0.082,1.093,0.082,1.646    c0,9.478-7.711,17.19-17.188,17.19c-0.554,0-1.103-0.029-1.647-0.082l-2.463,2.465C-30.772,32.85-29.399,33-28,33    C-16.971,33-8,24.026-8,12.999z"/>
	</g>
</g>
<g>
	<path d="M27.593,6.994c-0.096-0.097-0.176-0.175-0.251-0.251l-4.228,4.228c-0.204,0.201-0.53,0.201-0.732,0   c0,0-1.376-1.356-1.687-1.665c-0.308-0.309-1.664-1.688-1.664-1.688c-0.203-0.2-0.203-0.527-0.001-0.73l4.228-4.228   c-0.074-0.075-0.155-0.154-0.25-0.252c-2.741-0.639-5.713,0.092-7.084,2.286c-1.679,2.771-1.13,5.232-0.382,6.807L5.017,20.243   l0.018,0.018c-1.278,1.28-1.278,3.35,0,4.627c1.278,1.278,3.349,1.278,4.625,0l0.019,0.018l8.72-10.492   c1.569,0.771,4.079,1.378,6.908-0.335C27.502,12.707,28.232,9.735,27.593,6.994z M6.551,23.372l0-1.591l1.59,0.001v1.589H6.551z"/>
	<g>
		<path d="M2.17,16.234c-0.04-0.408-0.062-0.819-0.062-1.235C2.108,7.892,7.892,2.108,15,2.108c0.415,0,0.826,0.021,1.234,0.061    l1.847-1.849C17.079,0.112,16.048,0,15,0c-8.272,0-15,6.729-15,15c0,1.05,0.113,2.079,0.321,3.082L2.17,16.234z"/>
		<path d="M30,14.999c0-1.047-0.114-2.079-0.323-3.082l-1.847,1.847c0.04,0.407,0.062,0.82,0.062,1.235    c0,7.108-5.784,12.893-12.891,12.893c-0.416,0-0.827-0.022-1.236-0.062l-1.847,1.849C12.921,29.887,13.95,30,15,30    C23.271,30,30,23.27,30,14.999z"/>
	</g>
</g>
<g>
	<path d="M54.395,8.678c-0.063-0.064-0.117-0.116-0.167-0.167l-2.819,2.819c-0.136,0.134-0.353,0.134-0.488,0   c0,0-0.917-0.904-1.124-1.11c-0.205-0.206-1.109-1.125-1.109-1.125c-0.135-0.134-0.135-0.352-0.001-0.487l2.819-2.819   c-0.049-0.05-0.103-0.103-0.167-0.168c-1.828-0.426-3.809,0.062-4.723,1.523c-1.119,1.848-0.753,3.488-0.255,4.538l-7.016,5.829   l0.012,0.012c-0.852,0.854-0.852,2.233,0,3.085c0.852,0.852,2.233,0.852,3.083,0l0.013,0.012l5.813-6.994   c1.046,0.514,2.719,0.919,4.605-0.224C54.334,12.486,54.821,10.506,54.395,8.678z M40.368,19.597v-1.061l1.06,0.001v1.06H40.368z"/>
	<g>
		<path d="M37.447,14.838c-0.026-0.271-0.041-0.546-0.041-0.823c0-4.738,3.855-8.594,8.595-8.594c0.276,0,0.551,0.015,0.822,0.041    l1.231-1.232C47.386,4.09,46.699,4.015,46,4.015c-5.515,0-10,4.486-10,10c0,0.7,0.075,1.386,0.214,2.055L37.447,14.838z"/>
		<path d="M56,14.015c0-0.698-0.076-1.386-0.215-2.055l-1.231,1.231c0.026,0.271,0.041,0.547,0.041,0.823    c0,4.739-3.855,8.595-8.594,8.595c-0.277,0-0.552-0.015-0.824-0.041l-1.231,1.232C44.614,23.94,45.3,24.016,46,24.016    C51.514,24.016,56,19.528,56,14.015z"/>
	</g>
</g>
</svg>