<svg xmlns="http://www.w3.org/2000/svg" xmlns:xlink="http://www.w3.org/1999/xlink" version="1.1" x="0px" y="0px" width="100px" height="100px" viewBox="0 0 100 100" enable-background="new 0 0 100 100" xml:space="preserve">
<g id="&#1057;&#1083;&#1086;&#1081;_1">
</g>
<g id="&#1057;&#1083;&#1086;&#1081;_2">
	<path d="M65.667,79.5h-8l-3-4h-9l-3,4h-8c-0.55,0-1,0.45-1,1v1c0,0.55,0.45,1,1,1h31c0.55,0,1-0.45,1-1v-1   C66.667,79.95,66.217,79.5,65.667,79.5z"/>
	<path d="M84.667,21.5h-69c-1.65,0-3,1.35-3,3v45c0,1.65,1.35,3,3,3h69c1.65,0,3-1.35,3-3v-45C87.667,22.85,86.317,21.5,84.667,21.5   z M50.167,69.5c-1.243,0-2.25-1.007-2.25-2.25S48.924,65,50.167,65s2.25,1.007,2.25,2.25S51.409,69.5,50.167,69.5z M84.667,62.5   h-69v-38h69V62.5z"/>
	<rect x="39.667" y="32.5" width="9" height="9"/>
	<rect x="51.667" y="32.5" width="9" height="9"/>
	<rect x="39.667" y="44.5" width="9" height="9"/>
	<rect x="51.667" y="44.5" width="9" height="9"/>
</g>
</svg>